<?xml version="1.0" encoding="utf-8"?>
<!-- Generator: Adobe Illustrator 27.9.0, SVG Export Plug-In . SVG Version: 6.00 Build 0)  -->
<svg version="1.1" id="圖層_1" xmlns="http://www.w3.org/2000/svg" xmlns:xlink="http://www.w3.org/1999/xlink" x="0px" y="0px"
	 viewBox="0 0 30 30" style="enable-background:new 0 0 30 30;" xml:space="preserve">
<style type="text/css">
	.st0{fill:#666666;}
</style>
<path class="st0" d="M22.5,13.5h-6v-6C16.5,6.6,15.9,6,15,6c-0.9,0-1.5,0.6-1.5,1.5v6h-6C6.6,13.5,6,14.1,6,15
	c0,0.9,0.6,1.5,1.5,1.5h6v6c0,0.9,0.6,1.5,1.5,1.5c0.9,0,1.5-0.6,1.5-1.5v-6h6c0.9,0,1.5-0.6,1.5-1.5C24,14.1,23.4,13.5,22.5,13.5z"
	/>
</svg>
