<svg width="34" height="33" viewBox="0 0 34 33" fill="none" xmlns="http://www.w3.org/2000/svg">
<g clip-path="url(#clip0_101_47)">
<path d="M9.04144 24.6692H6.94044C6.63629 24.6692 6.38989 24.915 6.38989 25.2192C6.38989 25.5233 6.63629 25.7692 6.94044 25.7692H9.04144C9.34559 25.7692 9.59199 25.5233 9.59199 25.2192C9.59199 24.915 9.34559 24.6692 9.04144 24.6692Z" fill="white"/>
<path d="M12.2188 25.7697H14.3203C14.6245 25.7697 14.8709 25.5238 14.8709 25.2197C14.8709 24.9155 14.6245 24.6697 14.3203 24.6697H12.2188C11.9146 24.6697 11.6682 24.9155 11.6682 25.2197C11.6682 25.5238 11.9152 25.7697 12.2188 25.7697Z" fill="white"/>
<path d="M17.4978 25.7697H19.5988C19.903 25.7697 20.1494 25.5238 20.1494 25.2197C20.1494 24.9155 19.903 24.6697 19.5988 24.6697H17.4978C17.1937 24.6697 16.9473 24.9155 16.9473 25.2197C16.9473 25.5238 17.1942 25.7697 17.4978 25.7697Z" fill="white"/>
<path d="M28.4246 24.6692H22.7766C22.4725 24.6692 22.2261 24.915 22.2261 25.2192C22.2261 25.5233 22.4725 25.7692 22.7766 25.7692H28.4246C28.7287 25.7692 28.9751 25.5233 28.9751 25.2192C28.9751 24.915 28.7287 24.6692 28.4246 24.6692Z" fill="white"/>
<path d="M7.28754 26.7791H5.18654C4.88239 26.7791 4.63599 27.0249 4.63599 27.3291C4.63599 27.6332 4.88239 27.8791 5.18654 27.8791H7.28754C7.59169 27.8791 7.83809 27.6332 7.83809 27.3291C7.83809 27.0249 7.59169 26.7791 7.28754 26.7791Z" fill="white"/>
<path d="M13.1169 27.3291C13.1169 27.0249 12.8705 26.7791 12.5663 26.7791H10.4653C10.1612 26.7791 9.91479 27.0249 9.91479 27.3291C9.91479 27.6332 10.1612 27.8791 10.4653 27.8791H12.5663C12.8699 27.8791 13.1169 27.6332 13.1169 27.3291Z" fill="white"/>
<path d="M15.7439 27.8791H17.8449C18.1491 27.8791 18.3955 27.6332 18.3955 27.3291C18.3955 27.0249 18.1491 26.7791 17.8449 26.7791H15.7439C15.4398 26.7791 15.1934 27.0249 15.1934 27.3291C15.1934 27.6332 15.4398 27.8791 15.7439 27.8791Z" fill="white"/>
<path d="M23.1243 26.7791H21.0227C20.7186 26.7791 20.4722 27.0249 20.4722 27.3291C20.4722 27.6332 20.7186 27.8791 21.0227 27.8791H23.1243C23.4284 27.8791 23.6748 27.6332 23.6748 27.3291C23.6748 27.0249 23.4279 26.7791 23.1243 26.7791Z" fill="white"/>
<path d="M28.4025 26.7791H26.3015C25.9974 26.7791 25.751 27.0249 25.751 27.3291C25.751 27.6332 25.9974 27.8791 26.3015 27.8791H28.4025C28.7067 27.8791 28.9531 27.6332 28.9531 27.3291C28.9531 27.0249 28.7067 26.7791 28.4025 26.7791Z" fill="white"/>
<path d="M20.9698 28.8882H13.4783C13.1741 28.8882 12.9277 29.134 12.9277 29.4382C12.9277 29.7423 13.1741 29.9882 13.4783 29.9882H20.9698C21.274 29.9882 21.5204 29.7423 21.5204 29.4382C21.5204 29.134 21.274 28.8882 20.9698 28.8882Z" fill="white"/>
<path d="M30.4964 22.8645V18.9897C32.4165 20.4731 34.6038 17.6549 32.9973 15.9944L30.4964 13.7295V6.30289C30.4964 5.99929 30.25 5.75289 29.9459 5.75289H27.9818C27.9631 5.41739 27.8361 5.08739 27.5891 4.83164L24.3898 1.51954C23.8486 0.960191 22.9405 0.960191 22.3999 1.52009L22.1111 1.81874C21.8658 2.07284 21.7388 2.40119 21.719 2.73449L19.0053 4.79589L18.3266 5.75344H4.75697C4.45282 5.75344 4.20642 5.99984 4.20642 6.30344V22.8474L0.600621 31.1304C0.442771 31.494 0.708971 31.8999 1.10497 31.8999H32.978C33.3597 31.8999 33.6254 31.5215 33.4956 31.1629L30.4964 22.8645ZM32.2317 18.041C31.9193 18.3644 31.3731 18.3534 31.0811 18.052L24.194 10.5258C24.4145 10.3789 24.5487 10.176 24.6989 9.96369L32.2311 16.7842C32.5655 17.1307 32.5655 17.6945 32.2317 18.041ZM29.3953 12.7324L25.3402 9.05949L26.4099 7.54974C26.7471 7.52444 27.0611 7.38364 27.3015 7.13504L27.5737 6.85289H29.3959L29.3953 12.7324ZM22.9031 2.58214L23.1919 2.28404C23.3041 2.16799 23.4861 2.16744 23.5983 2.28349L26.7971 5.59559C26.922 5.72484 26.922 5.94319 26.7971 6.07244L26.5095 6.37054C26.3973 6.48659 26.2152 6.48714 26.1025 6.37109L22.9037 3.05899C22.7783 2.92974 22.7783 2.71194 22.9031 2.58214ZM19.8066 5.56864L22.1084 3.81964C22.1095 3.82074 22.11 3.82184 22.1111 3.82294L25.3105 7.13504C25.3187 7.14384 25.3292 7.14989 25.3374 7.15814L23.6242 9.57594L21.4341 11.2402C21.428 11.2336 21.4242 11.2259 21.4176 11.2193L18.2188 7.90724C18.205 7.89294 18.1885 7.88359 18.1742 7.87039L19.8066 5.56864ZM17.0209 8.67229C17.1331 8.55624 17.3151 8.55569 17.4273 8.67174L20.6267 11.9838C20.7515 12.1131 20.7515 12.3314 20.6267 12.4607L20.339 12.7588C20.2268 12.8748 20.0448 12.8754 19.9326 12.7593L16.7332 9.44724C16.6084 9.31799 16.6084 9.09964 16.7332 8.97039L17.0209 8.67229ZM5.30752 6.85289H17.5472L17.0814 7.51014C16.7657 7.54149 16.4593 7.66964 16.2289 7.90779L15.9407 8.20644C15.4066 8.75919 15.4066 9.65844 15.9407 10.2112L19.1395 13.5233C19.6812 14.0826 20.5887 14.0821 21.1299 13.5227L21.4181 13.2241C21.6563 12.9771 21.7822 12.6609 21.8081 12.338L23.3145 11.1935L29.3953 17.8386V22.4102H5.30752V6.85289ZM1.94537 30.7999L5.11832 23.5113H29.5598L32.1943 30.7999H1.94537Z" fill="white"/>
<path d="M18.2913 14.5222H16.1139C13.7104 14.5222 11.7551 16.4758 11.7551 18.8777C11.7551 19.1818 12.0015 19.4277 12.3057 19.4277H22.0995C22.4037 19.4277 22.6501 19.1818 22.6501 18.8777C22.6501 16.4758 20.6943 14.5222 18.2913 14.5222ZM12.9024 18.3277C13.1648 16.7932 14.5046 15.6222 16.1139 15.6222H18.2913C19.9001 15.6222 21.2404 16.7932 21.5028 18.3277H12.9024Z" fill="white"/>
<path d="M21.968 20.2119H12.4365C12.1324 20.2119 11.886 20.4578 11.886 20.7619C11.886 21.0661 12.1324 21.3119 12.4365 21.3119H21.968C22.2722 21.3119 22.5186 21.0661 22.5186 20.7619C22.5186 20.4578 22.2722 20.2119 21.968 20.2119Z" fill="white"/>
</g>
<defs>
<clipPath id="clip0_101_47">
<rect width="33" height="33" fill="white" transform="translate(0.554443)"/>
</clipPath>
</defs>
</svg>
