<?xml version="1.0" encoding="utf-8"?>
<!-- Generator: Adobe Illustrator 27.9.0, SVG Export Plug-In . SVG Version: 6.00 Build 0)  -->
<svg version="1.1" id="圖層_1" xmlns="http://www.w3.org/2000/svg" xmlns:xlink="http://www.w3.org/1999/xlink" x="0px" y="0px"
	 viewBox="0 0 10 15" style="enable-background:new 0 0 10 15;" xml:space="preserve">
<style type="text/css">
	.st0{fill:#FFFFFF;}
</style>
<path class="st0" d="M0.8,4.1c-0.4-0.4-0.4-1,0-1.4l1.6-1.6c0.4-0.4,1-0.4,1.4,0l1.6,1.6c0.4,0.4,0.4,1,0,1.4L3.8,5.7
	c-0.4,0.4-1,0.4-1.4,0L0.8,4.1z M0.8,12.3c-0.4-0.4-0.4-1,0-1.4l1.6-1.6c0.4-0.4,1-0.4,1.4,0l1.6,1.6c0.4,0.4,0.4,1,0,1.4l-1.6,1.6
	c-0.4,0.4-1,0.4-1.4,0L0.8,12.3z M4.9,6.8c-0.4,0.4-0.4,1,0,1.4l1.6,1.6c0.4,0.4,1,0.4,1.4,0l1.6-1.6c0.4-0.4,0.4-1,0-1.4L7.9,5.2
	c-0.4-0.4-1-0.4-1.4,0L4.9,6.8z"/>
</svg>
