<svg width="22" height="23" viewBox="0 0 22 23" fill="none" xmlns="http://www.w3.org/2000/svg">
<path d="M19.7317 0.5C19.4828 0.5 2.51801 0.5 2.26832 0.5C1.0175 0.5 0 1.5175 0 2.76832V7.26801C0 8.51883 1.0175 9.53633 2.26832 9.53633H8.49793L10.5849 11.2942C10.825 11.4973 11.1769 11.4956 11.4151 11.2942L13.5021 9.53633H19.7317C20.9825 9.53633 22 8.51883 22 7.26801V2.76832C22 1.5175 20.9825 0.5 19.7317 0.5ZM3.22266 2.86973H13.4484C13.8041 2.86973 14.0929 3.15848 14.0929 3.51426C14.0929 3.87004 13.8041 4.15879 13.4484 4.15879C12.8956 4.15879 3.60525 4.15879 3.22266 4.15879C2.86687 4.15879 2.57812 3.87004 2.57812 3.51426C2.57812 3.15848 2.86687 2.86973 3.22266 2.86973ZM7.92258 7.1666H3.22266C2.86687 7.1666 2.57812 6.87785 2.57812 6.52207C2.57812 6.16629 2.86687 5.87754 3.22266 5.87754H7.92258C8.27879 5.87754 8.56711 6.16629 8.56711 6.52207C8.56711 6.87785 8.27879 7.1666 7.92258 7.1666ZM18.7773 7.1666C18.3848 7.1666 10.7254 7.1666 10.4796 7.1666C10.1239 7.1666 9.83512 6.87785 9.83512 6.52207C9.83512 6.16629 10.1239 5.87754 10.4796 5.87754H18.7773C19.1331 5.87754 19.4219 6.16629 19.4219 6.52207C19.4219 6.87785 19.1331 7.1666 18.7773 7.1666ZM18.7773 4.15879H16.0265C15.6707 4.15879 15.382 3.87004 15.382 3.51426C15.382 3.15848 15.6707 2.86973 16.0265 2.86973H18.7773C19.1331 2.86973 19.4219 3.15848 19.4219 3.51426C19.4219 3.87004 19.1331 4.15879 18.7773 4.15879Z" fill="white"/>
<path d="M18.216 17.56C19.4149 17.5585 20.3896 16.5832 20.3896 15.3844C20.3896 14.1846 19.4134 13.2087 18.2133 13.2087C17.0132 13.2087 16.037 14.1846 16.037 15.3844C16.037 16.5835 17.012 17.5589 18.2111 17.5601C17.2383 17.5606 16.3501 17.93 15.679 18.5354C16.1426 19.3325 16.4081 20.258 16.4081 21.2442V22.5001H21.3706C21.7182 22.5001 22.0001 22.2182 22.0001 21.8706V21.3455C22 19.259 20.3026 17.5615 18.216 17.56Z" fill="white"/>
<path d="M5.96264 15.3844C5.96264 14.1846 4.98644 13.2087 3.78636 13.2087C2.58625 13.2087 1.61004 14.1846 1.61004 15.3844C1.61004 16.5832 2.58474 17.5585 3.78361 17.56C1.69748 17.5615 0 19.259 0 21.3455V21.8706C0 22.2182 0.281875 22.5001 0.629492 22.5001H5.59195V21.2974C5.59195 20.3164 5.84891 19.372 6.33059 18.5435C5.65817 17.9334 4.76609 17.5606 3.78851 17.56C4.9876 17.5589 5.96264 16.5834 5.96264 15.3844Z" fill="white"/>
<path d="M10.959 17.1264C8.69152 17.1484 6.88086 19.0299 6.88086 21.2974V22.5H15.1189V21.2438C15.1189 18.9597 13.2488 17.1042 10.959 17.1264Z" fill="white"/>
<path d="M10.9997 17.1263C12.3071 17.1263 13.3671 16.0666 13.3671 14.7595C13.3671 13.4524 12.3071 12.3928 10.9997 12.3928C9.69223 12.3928 8.63232 13.4524 8.63232 14.7595C8.63232 16.0666 9.69223 17.1263 10.9997 17.1263Z" fill="white"/>
</svg>
