<?xml version="1.0" encoding="utf-8"?>
<!-- Generator: Adobe Illustrator 27.9.0, SVG Export Plug-In . SVG Version: 6.00 Build 0)  -->
<svg version="1.1" id="圖層_1" xmlns="http://www.w3.org/2000/svg" xmlns:xlink="http://www.w3.org/1999/xlink" x="0px" y="0px"
	 viewBox="0 0 30 30" style="enable-background:new 0 0 30 30;" xml:space="preserve">
<style type="text/css">
	.st0{fill:#FFFFFF;}
</style>
<path class="st0" d="M21.4,3.7c-4.9-4.9-12.9-4.9-17.8,0s-4.9,12.9,0,17.8c4.4,4.4,11.2,4.9,16.1,1.4l6.5,6.5c0.8,0.8,2.2,0.8,3.1,0
	c0.8-0.8,0.8-2.2,0-3.1l-6.5-6.6C26.3,14.9,25.8,8,21.4,3.7z M18.6,18.6c-3.4,3.4-8.8,3.4-12.1,0c-3.4-3.4-3.4-8.8,0-12.1
	s8.8-3.4,12.1,0C21.9,9.8,21.9,15.2,18.6,18.6z"/>
</svg>
