<svg width="18" height="22" viewBox="0 0 18 22" fill="none" xmlns="http://www.w3.org/2000/svg">
<path d="M17.187 1.43738C16.7624 1.03024 16.2601 0.767739 15.6594 0.767739C11.2837 0.757024 6.90794 0.740953 2.53222 0.735596C2.29919 0.735596 2.07135 0.789167 1.83832 0.815953C1.79689 0.832024 1.75547 0.848096 1.71922 0.85881C1.41887 1.04095 1.09264 1.18024 0.833717 1.40524C0.424626 1.76417 0.155351 2.24095 0.056962 2.7981C0.0103567 3.0606 0.0103567 3.33917 0.0103567 3.60702C0.0103567 8.53024 0.0155351 13.4588 0 18.382C0 18.9124 0.0466053 19.416 0.295167 19.8767C0.693901 20.6106 1.28423 21.0874 2.10759 21.2267C2.12313 21.2267 2.13349 21.2535 2.14384 21.2642C2.20598 21.2642 2.2733 21.2642 2.33544 21.2642C2.38723 21.2642 2.43901 21.2642 2.49079 21.2642C6.83544 21.2642 11.1749 21.2642 15.5196 21.2642C15.5558 21.2642 15.5972 21.2642 15.6335 21.2642C15.6853 21.2642 15.7371 21.2642 15.7888 21.2642C15.8251 21.2535 15.8665 21.2427 15.9028 21.232C16.6899 21.066 17.2854 20.6213 17.6789 19.9035C17.9223 19.4588 18 18.966 18 18.457C18 13.4856 18 8.51417 18 3.54274C18.0052 2.71774 17.7722 1.99988 17.187 1.43738ZM10.7244 7.7481C10.7969 7.74274 10.8642 7.73738 10.9367 7.73738C12.1122 7.73738 13.2877 7.73738 14.4632 7.73738C14.7998 7.73738 15.1053 7.90881 15.1778 8.22488C15.2399 8.48202 15.2296 8.79274 14.9707 9.00702C14.9551 9.01774 14.9396 9.02845 14.9241 9.03917C14.7842 9.08202 14.6392 9.16238 14.4942 9.16238C13.2877 9.1731 12.0759 9.16238 10.8694 9.1731C10.4448 9.17845 10.2635 8.92667 10.16 8.6481C10.0409 8.29988 10.3308 7.77488 10.7244 7.7481ZM4.04948 7.51774C4.25662 7.38381 4.71749 7.46417 4.91427 7.6731C5.13176 7.8981 5.34925 8.12845 5.58228 8.36952C5.82566 8.13917 6.05351 7.92488 6.271 7.70524C6.70598 7.26595 7.13061 6.82131 7.56041 6.37131C7.78826 6.1356 8.05236 6.0981 8.34235 6.19988C8.58055 6.2856 8.78769 6.57488 8.76697 6.85345C8.75662 7.00881 8.6893 7.19095 8.59091 7.30345C8.23878 7.69988 7.86594 8.06952 7.49827 8.44452C7.02704 8.93202 6.55581 9.41952 6.08458 9.90167C5.80495 10.191 5.3855 10.1856 5.10587 9.89631C4.71231 9.48917 4.31876 9.08202 3.9252 8.67488C3.55754 8.3106 3.65593 7.77488 4.04948 7.51774ZM8.63234 13.0035C8.62716 13.0142 8.62198 13.0249 8.61162 13.0356C8.5702 13.0785 8.53395 13.116 8.49252 13.1588C8.40449 13.2499 8.31128 13.3463 8.22324 13.4374C7.51381 14.1713 6.79919 14.9052 6.08976 15.6445C5.71174 15.9927 5.32854 15.8802 5.03337 15.5802C4.65017 15.1838 4.2618 14.7874 3.88377 14.391C3.50058 13.9838 3.72842 13.3517 4.10127 13.2392C4.38608 13.1535 4.67606 13.1588 4.90909 13.4106C5.1214 13.641 5.34407 13.866 5.5771 14.1124C5.62888 14.0588 5.67549 14.016 5.71692 13.9731C6.26582 13.4052 6.80955 12.8374 7.36364 12.2749C7.4931 12.141 7.63291 12.007 7.79862 11.932C8.07307 11.8035 8.43038 11.9052 8.60644 12.1463C8.78251 12.3767 8.84465 12.6338 8.63234 13.0035ZM14.5719 14.8945C13.9402 14.8892 13.3084 14.8945 12.6715 14.8945C12.0759 14.8945 11.4856 14.8838 10.8901 14.8999C10.4396 14.9106 10.2273 14.6535 10.1289 14.2463C10.0616 13.9517 10.3723 13.5552 10.7037 13.491C10.7658 13.4802 10.8331 13.4749 10.8953 13.4749C12.0915 13.4749 13.2825 13.4802 14.4787 13.4695C14.8412 13.4695 15.2399 13.7588 15.214 14.2302C15.2037 14.5356 14.8826 14.8945 14.5719 14.8945Z" fill="#010101"/>
</svg>
