<svg width="24" height="18" viewBox="0 0 24 18" fill="none" xmlns="http://www.w3.org/2000/svg">
<g clip-path="url(#clip0_137_42)">
<path d="M16.764 17.813C16.9682 17.813 17.1779 17.813 17.3821 17.813C18.414 17.4635 18.6513 17.16 18.6513 16.2128C18.6513 12.6489 18.6513 9.08969 18.6513 5.52586C18.6513 4.482 18.6237 3.43815 18.6678 2.39429C18.7064 1.41941 19.3355 0.752626 20.395 0.361754C20.5661 0.297376 20.7592 0.260588 20.991 0.196209C20.8696 0.196209 20.8089 0.196209 20.7482 0.196209C16.3226 0.19161 11.897 0.19161 7.4714 0.187012C7.06857 0.187012 6.6823 0.255989 6.30706 0.380148C5.30275 0.71124 4.3481 1.59875 4.35362 2.91852C4.3757 6.68928 4.36466 10.4554 4.35362 14.2262C4.35362 14.4055 4.41432 14.4377 4.6185 14.4377C8.16117 14.4331 11.7094 14.4331 15.252 14.4331C15.528 14.4331 15.5224 14.4331 15.5224 14.6631C15.5224 15.2885 15.5224 15.9139 15.5224 16.5392C15.5224 17.0957 15.9584 17.5831 16.5985 17.7533C16.6537 17.7716 16.7309 17.7533 16.764 17.813ZM11.3893 7.2457C11.0858 7.2457 10.7823 7.2457 10.4788 7.2457C9.44139 7.2457 8.39846 7.2457 7.36104 7.2457C7.09065 7.2457 7.09065 7.2457 7.09065 7.02037C7.09065 6.80424 7.09616 6.58351 7.09065 6.36738C7.08513 6.24782 7.13479 6.21104 7.27826 6.21104C10.0043 6.21104 12.7247 6.21104 15.4507 6.20644C15.6218 6.20644 15.6659 6.26622 15.6659 6.39038C15.6604 6.6157 15.6494 6.83643 15.6659 7.06176C15.6769 7.21811 15.6162 7.25029 15.4341 7.25029C14.0877 7.2411 12.7413 7.2457 11.3893 7.2457ZM11.3838 12.4466C10.0263 12.4466 8.66885 12.442 7.31689 12.4466C7.15135 12.4466 7.08513 12.4144 7.09616 12.2672C7.11272 12.0465 7.11272 11.8212 7.09616 11.5959C7.08513 11.4395 7.15135 11.4073 7.32793 11.4073C9.91044 11.4119 12.493 11.4119 15.0699 11.4119C15.1858 11.4119 15.3017 11.4119 15.4231 11.4119C15.5887 11.4119 15.6769 11.4671 15.6714 11.6189C15.6604 11.8304 15.6549 12.0419 15.6659 12.2535C15.6769 12.419 15.5887 12.4512 15.4121 12.4512C14.0656 12.4466 12.7247 12.4466 11.3838 12.4466ZM11.3617 9.84844C10.5561 9.84844 9.75041 9.84844 8.95028 9.84844C8.39294 9.84844 7.8356 9.84384 7.27826 9.84844C7.13479 9.84844 7.09065 9.80706 7.09616 9.6875C7.1072 9.49896 7.10168 9.31042 7.10168 9.12188C7.10168 8.81838 7.10168 8.81838 7.46036 8.81838C9.95459 8.81838 12.4543 8.81378 14.9485 8.81378C15.1086 8.81378 15.2631 8.81838 15.4231 8.81378C15.6052 8.80918 15.688 8.85977 15.6714 9.02071C15.6604 9.20925 15.6659 9.39779 15.6659 9.58633C15.6604 9.84844 15.6604 9.84844 15.3459 9.84844C14.016 9.84844 12.6861 9.84844 11.3617 9.84844ZM13.1331 4.66594C12.3605 4.66594 11.5935 4.66594 10.8209 4.67054C10.6609 4.67054 10.6002 4.63375 10.6057 4.4958C10.6168 4.27967 10.6223 4.05894 10.6057 3.84281C10.5947 3.67727 10.6775 3.63588 10.8541 3.63588C12.3881 3.63588 13.9222 3.63588 15.4562 3.63588C15.6107 3.63588 15.6659 3.69106 15.6659 3.81062C15.6659 4.03595 15.6604 4.25668 15.6714 4.482C15.6769 4.62456 15.6107 4.67974 15.4286 4.67514C14.6561 4.66134 13.8946 4.66594 13.1331 4.66594Z" fill="black"/>
<path d="M14.7388 17.813C14.4022 17.367 14.2587 16.8841 14.2808 16.3599C14.2918 16.1116 14.2752 15.8678 14.2863 15.6195C14.2918 15.5 14.2532 15.4678 14.1042 15.4678C13.3813 15.477 12.6584 15.4724 11.9355 15.4724C9.03296 15.4724 6.12488 15.4724 3.22231 15.4678C3.03469 15.4678 2.99054 15.5092 3.00158 15.6563C3.01813 15.946 3.0071 16.2403 3.0071 16.5346C3.01262 17.137 3.45959 17.6245 4.16592 17.7762C4.19903 17.7854 4.23765 17.7762 4.24869 17.813C7.7417 17.813 11.2402 17.813 14.7388 17.813Z" fill="black"/>
<path d="M21.4379 3.57146C21.8959 3.57146 22.3594 3.56686 22.8174 3.57606C22.9664 3.58066 23.005 3.53927 22.9995 3.41971C22.9885 3.11621 22.9995 2.81271 22.994 2.50921C22.994 1.83323 22.4035 1.29061 21.5979 1.22163C20.8088 1.15265 20.0362 1.6171 19.9148 2.27009C19.8376 2.67015 19.8928 3.08402 19.8928 3.48869C19.8928 3.59445 19.9921 3.56686 20.0583 3.56686C20.5163 3.57146 20.9798 3.56686 21.4379 3.57146Z" fill="black"/>
</g>
<defs>
<clipPath id="clip0_137_42">
<rect width="24" height="17.6261" fill="white" transform="matrix(-1 0 0 1 24 0.187012)"/>
</clipPath>
</defs>
</svg>
