<svg width="10" height="15" viewBox="0 0 10 15" fill="none" xmlns="http://www.w3.org/2000/svg">
<path fill-rule="evenodd" clip-rule="evenodd" d="M0.793817 4.1204C0.403293 3.72987 0.403293 3.09671 0.793818 2.70618L2.36387 1.13613C2.75439 0.74561 3.38756 0.74561 3.77808 1.13613L5.34812 2.70618C5.73865 3.0967 5.73865 3.72987 5.34812 4.12039L3.77807 5.69044C3.38755 6.08096 2.75439 6.08096 2.36386 5.69044L0.793817 4.1204ZM0.793816 12.2938C0.403292 11.9033 0.403292 11.2701 0.793816 10.8796L2.36386 9.30955C2.75439 8.91903 3.38755 8.91903 3.77808 9.30955L5.34812 10.8796C5.73865 11.2701 5.73865 11.9033 5.34812 12.2938L3.77807 13.8639C3.38755 14.2544 2.75438 14.2544 2.36386 13.8639L0.793816 12.2938ZM4.88063 6.79289C4.4901 7.18342 4.4901 7.81658 4.88063 8.20711L6.45067 9.77715C6.8412 10.1677 7.47436 10.1677 7.86489 9.77715L9.43493 8.2071C9.82546 7.81658 9.82546 7.18341 9.43493 6.79289L7.86489 5.22284C7.47437 4.83232 6.8412 4.83232 6.45068 5.22284L4.88063 6.79289Z" fill="#303030"/>
</svg>
