<svg width="24" height="20" viewBox="0 0 24 20" fill="none" xmlns="http://www.w3.org/2000/svg">
<g clip-path="url(#clip0_97_52)">
<path d="M12.0049 19.1444C13.2677 19.1444 14.4869 19.0999 15.6626 18.8329C16.3157 18.6994 16.9253 18.477 17.4478 18.121C18.6235 17.3645 18.8412 16.0296 18.2316 14.8727C17.7527 13.9383 17.0124 13.3153 16.098 12.8259C15.0965 12.2919 14.0079 11.9804 12.8322 11.8914C11.134 11.7579 9.52293 11.9804 7.99891 12.7369C7.12804 13.1818 6.34426 13.7603 5.82173 14.6947C5.34276 15.5847 5.21213 16.4746 5.73465 17.3645C6.083 17.9875 6.64906 18.299 7.25867 18.566C8.04245 18.8774 8.82623 19.0109 9.65356 19.0999C10.4809 19.0999 11.2647 19.1444 12.0049 19.1444Z" fill="black"/>
<path d="M12.005 9.80008C14.4435 9.80008 16.4029 7.79772 16.3594 5.2614C16.3159 2.76958 14.3129 0.811716 11.8744 0.856212C9.52307 0.900709 7.60715 2.90307 7.60715 5.3504C7.6507 7.79772 9.61015 9.80008 12.005 9.80008Z" fill="black"/>
<path d="M16.7512 2.05746C17.1431 2.72492 17.4479 3.34787 17.5785 4.10432C17.8833 5.70621 17.6221 7.2191 16.7512 8.5985C16.6641 8.73199 16.6641 8.77649 16.8383 8.86548C18.7542 9.44394 20.8007 8.19803 21.1926 6.19567C21.5845 4.19331 20.3218 2.27995 18.3623 1.96847C17.8398 1.79048 17.3173 1.83498 16.7512 2.05746Z" fill="black"/>
<path d="M7.30226 2.05758C6.30076 1.7461 5.34281 1.83509 4.47194 2.36906C3.38335 3.03651 2.77374 4.05994 2.77374 5.39484C2.7302 7.26371 4.12359 8.73211 5.77824 8.95459C6.30076 8.99909 6.77974 8.99909 7.25872 8.8211C7.38935 8.77661 7.43289 8.73211 7.34581 8.59862C6.64911 7.57519 6.34431 6.41827 6.34431 5.17236C6.34431 4.05994 6.64911 3.03651 7.30226 2.05758Z" fill="black"/>
<path d="M8.95703 10.8235C8.21679 10.512 7.47655 10.334 6.69277 10.2895C5.56064 10.2006 4.5156 10.3785 3.47055 10.779C2.64323 11.135 1.94653 11.58 1.42401 12.3364C1.03212 12.9149 0.901486 13.5378 1.07566 14.2498C1.24983 14.7837 1.59818 15.1397 2.07716 15.4067C2.64323 15.7182 3.25283 15.8962 3.90599 15.9407C3.99307 15.9407 4.03662 15.9407 4.03662 15.8517C4.1237 14.6057 4.64623 13.6268 5.47355 12.7814C6.38797 11.8469 7.5201 11.2685 8.78286 10.868C8.91349 10.868 8.91349 10.868 8.95703 10.8235Z" fill="black"/>
<path d="M15.0531 10.8235C15.6627 11.0014 16.1852 11.2239 16.7077 11.4909C17.8398 12.0694 18.7978 12.8703 19.4074 14.0272C19.7122 14.5612 19.8864 15.1841 19.9299 15.8071C19.8864 15.9851 19.9299 16.0296 20.1041 15.9851C20.7573 15.8516 21.3669 15.7181 21.9765 15.3621C23.1086 14.6947 23.2392 13.4933 22.6732 12.4698C22.2377 11.7134 21.5846 11.2239 20.8443 10.868C19.7558 10.334 18.5801 10.156 17.4044 10.245C16.5771 10.334 15.7933 10.512 15.0531 10.8235Z" fill="black"/>
</g>
<defs>
<clipPath id="clip0_97_52">
<rect width="24" height="18.289" fill="white" transform="matrix(-1 0 0 1 24 0.855469)"/>
</clipPath>
</defs>
</svg>
