<?xml version="1.0" encoding="utf-8"?>
<!-- Generator: Adobe Illustrator 27.9.0, SVG Export Plug-In . SVG Version: 6.00 Build 0)  -->
<svg version="1.1" id="圖層_1" xmlns="http://www.w3.org/2000/svg" xmlns:xlink="http://www.w3.org/1999/xlink" x="0px" y="0px"
	 viewBox="0 0 22 20" style="enable-background:new 0 0 22 20;" xml:space="preserve">
<g>
	<path d="M0,6c0.1-0.2,0.1-0.4,0.3-0.5c0.3-0.4,0.6-0.6,1.1-0.7c0,0.1,0,0.3,0,0.4c0,3.4,0,6.8,0,10.1c0,1.1,0.9,1.9,1.9,1.9
		c1.4,0,2.8,0,4.3,0c0.8,0,1.4,0.5,1.5,1.3c0,0.1,0,0.2,0.1,0.4C9,19,9,19,8.9,19c-2.4,0-4.8,0-7.2,0c-0.9,0-1.3-0.3-1.6-1.2
		c0,0,0,0,0-0.1C0,13.9,0,10,0,6z"/>
	<path d="M11.6,18.5c0-0.2,0-0.5,0-0.7c0-5.2,0-10.3,0-15.5c0-0.2,0-0.3,0.2-0.4c0.8-0.6,1.7-1,2.7-1c1.4,0,2.8,0,4.2,0
		c0.5,0,0.7,0.3,0.7,0.7c0,4.5,0,9.1,0,13.6c0,0.4-0.3,0.7-0.7,0.7c-1.4,0-2.8,0-4.3,0c-1.2,0-2.2,0.7-2.6,1.8
		C11.7,18,11.7,18.3,11.6,18.5z M15.3,8.7c0.4,0,0.8,0,1.3,0c0.4,0,0.7-0.3,0.7-0.6c0-0.4-0.3-0.6-0.7-0.6c-0.8,0-1.7,0-2.5,0
		c-0.4,0-0.7,0.3-0.7,0.7c0,0.4,0.3,0.6,0.7,0.6C14.5,8.7,14.9,8.7,15.3,8.7z M15.3,6.1c0.4,0,0.8,0,1.2,0c0.4,0,0.7-0.3,0.7-0.7
		c0-0.4-0.3-0.6-0.7-0.6c-0.8,0-1.6,0-2.5,0c-0.4,0-0.7,0.3-0.7,0.7c0,0.4,0.3,0.6,0.7,0.6C14.5,6.1,14.9,6.1,15.3,6.1z M15.3,11.3
		c0.4,0,0.8,0,1.3,0c0.4,0,0.7-0.3,0.7-0.6c0-0.4-0.3-0.6-0.7-0.6c-0.8,0-1.7,0-2.5,0c-0.4,0-0.7,0.3-0.7,0.6c0,0.4,0.3,0.6,0.7,0.6
		C14.5,11.3,14.9,11.3,15.3,11.3z"/>
	<path d="M10.4,18.5c-0.2-1.2-1-2.1-2.2-2.4C7.9,16,7.7,16,7.5,16c-1.4,0-2.8,0-4.2,0c-0.5,0-0.7-0.3-0.7-0.7c0-4.5,0-9.1,0-13.6
		C2.6,1.2,2.9,1,3.3,1c1.4,0,2.8,0,4.3,0c1,0,1.9,0.3,2.6,1c0.1,0.1,0.1,0.2,0.1,0.3c0,5.4,0,10.7,0,16.1
		C10.4,18.4,10.4,18.4,10.4,18.5z M6.7,8.7c0.4,0,0.8,0,1.3,0c0.4,0,0.7-0.3,0.7-0.6c0-0.4-0.3-0.6-0.7-0.6c-0.8,0-1.7,0-2.5,0
		C5,7.4,4.8,7.7,4.8,8.1c0,0.4,0.3,0.6,0.7,0.6C5.9,8.7,6.3,8.7,6.7,8.7z M6.7,6.1c0.4,0,0.8,0,1.3,0c0.4,0,0.7-0.3,0.7-0.6
		c0-0.4-0.3-0.6-0.7-0.6c-0.8,0-1.7,0-2.5,0c-0.4,0-0.7,0.3-0.7,0.6c0,0.4,0.3,0.6,0.7,0.6C5.9,6.1,6.3,6.1,6.7,6.1z M6.7,11.3
		c0.4,0,0.8,0,1.3,0c0.4,0,0.7-0.3,0.7-0.7C8.6,10.3,8.3,10,8,10c-0.8,0-1.7,0-2.5,0c-0.4,0-0.7,0.3-0.7,0.7c0,0.4,0.3,0.6,0.7,0.6
		C5.9,11.3,6.3,11.3,6.7,11.3z"/>
	<path d="M20.7,4.9C21.4,4.9,22,5.6,22,6.3c0,3.8,0,7.5,0,11.3c0,0.7-0.7,1.4-1.4,1.4c-2.6,0-5.1,0-7.7,0c0,0,0,0-0.1,0
		c0.1-0.3,0.1-0.7,0.3-1c0.3-0.4,0.7-0.7,1.3-0.7c1.4,0,2.8,0,4.2,0c1.2,0,2-0.8,2-2.1c0-3.4,0-6.8,0-10.2C20.7,5,20.7,4.9,20.7,4.9
		z"/>
</g>
</svg>
