<svg width="24" height="20" viewBox="0 0 24 20" fill="none" xmlns="http://www.w3.org/2000/svg">
<g clip-path="url(#clip0_96_16)">
<path d="M23 1.61271C23 6.84115 23 12.0696 23 17.3706C23 17.3706 23 17.3706 22.9335 17.4433C22.6677 18.9682 21.6042 19.9849 20.142 19.9849C14.6918 19.9849 9.24169 19.9849 3.79154 19.9849C3.52568 19.9849 3.25982 19.9849 3.06042 19.9122C1.79758 19.5492 1 18.3873 1 16.9349C1 12.6505 1 8.36611 1 4.00908C1 2.99244 1.66465 2.19365 2.5287 1.9758C2.79456 1.90318 2.79456 1.90318 2.79456 2.26627C2.79456 6.1876 2.79456 10.0363 2.79456 13.9576C2.79456 14.9743 2.79456 15.9909 2.79456 17.0076C2.79456 17.4433 3.06042 17.8063 3.45921 17.9516C3.85801 18.0968 4.2568 17.879 4.45619 17.5159C4.58912 17.298 4.58912 17.0802 4.58912 16.8623C4.58912 11.997 4.58912 7.20424 4.58912 2.33889C4.58912 2.04842 4.58912 1.83057 4.65559 1.5401C4.78852 0.813926 5.51964 0.0151367 6.51662 0.0151367C9.97281 0.0151367 19.7432 0.0151367 21.139 0.0151367C21.6707 0.0151367 22.136 0.305605 22.4683 0.741309C22.8006 0.95916 22.8671 1.32225 23 1.61271ZM13.8278 11.997C13.8278 11.9244 13.8278 11.9244 13.8278 11.997C15.29 11.997 16.8187 11.997 18.281 11.997C18.5468 11.997 18.7462 11.9244 18.9456 11.7791C19.2779 11.4887 19.4109 11.0529 19.2779 10.6899C19.145 10.2542 18.8127 10.0363 18.3474 10.0363C15.5559 10.0363 12.8308 10.0363 10.0393 10.0363C9.77341 10.0363 9.50755 10.0363 9.17523 10.0363C8.57704 10.0363 8.11178 10.6899 8.31118 11.3434C8.44411 11.7791 8.77643 11.997 9.24169 11.997C10.8369 11.997 12.3656 11.997 13.8278 11.997ZM18.3474 15.9183C18.4804 15.9183 18.6133 15.9183 18.8127 15.8457C19.2115 15.6278 19.4109 15.1921 19.3444 14.6838C19.2779 14.2481 18.8792 13.885 18.3474 13.885C15.3565 13.885 12.3656 13.885 9.37462 13.885C9.17523 13.885 8.97583 13.9576 8.77643 14.0303C8.44411 14.2481 8.31118 14.7564 8.37764 15.1195C8.51057 15.5552 8.8429 15.8457 9.30816 15.8457C10.8369 15.9183 16.8187 15.9183 18.3474 15.9183ZM11.1027 7.93041C11.7009 7.93041 12.2991 7.93041 12.9637 7.93041C13.429 7.93041 13.8278 7.56732 13.8278 7.059C13.8943 6.33283 13.8943 5.60666 13.8278 4.88049C13.8278 4.29955 13.429 3.93646 12.8308 3.93646C11.6344 3.93646 10.5045 3.93646 9.30816 3.93646C8.77644 3.93646 8.37764 4.37217 8.37764 4.95311C8.37764 5.60666 8.37764 6.26021 8.37764 6.91377C8.37764 7.56732 8.77644 7.93041 9.30816 7.93041C9.90634 7.93041 10.5045 7.93041 11.1027 7.93041Z" fill="black"/>
</g>
<defs>
<clipPath id="clip0_96_16">
<rect width="24" height="19.9697" fill="white" transform="translate(0 0.0151367)"/>
</clipPath>
</defs>
</svg>
