<svg width="321" height="52" viewBox="0 0 321 52" fill="none" xmlns="http://www.w3.org/2000/svg">
<g filter="url(#filter0_d_79_182)">
<path d="M18.312 6.056L14.264 10.28C12.46 7.816 9.82 4.472 8.016 2.36L9.336 0.511997C12.02 1.612 15.848 3.988 18.312 6.056ZM45.02 38.66L39.124 41.872C38.464 39.716 37.716 37.472 36.88 35.228C30.5 37.78 22.668 39.584 17.08 40.42L15.408 33.82C17.212 33.864 19.148 33.864 21.128 33.776C22.58 30.52 24.076 26.076 24.912 22.292H16.332V19.564H26.936V11.82H18.312V9.092H26.936V1.084H32.788V9.092H42.072V11.82H32.788V19.564H43.832V22.292H31.512C30.016 25.812 27.332 30.168 24.604 33.644C28.388 33.468 32.26 33.16 35.912 32.676C35.12 30.696 34.24 28.76 33.36 26.956L35.428 25.68C39.388 29.684 42.644 34.348 45.02 38.66ZM15.584 15.164L11.58 19.608C9.6 17.012 6.784 13.58 4.98 11.424L6.3 9.62C9.028 10.764 12.9 13.008 15.584 15.164ZM5.288 37.604C7.664 33.424 10.48 27.484 12.944 21.72L15.056 22.468C14.132 28.76 12.768 35.712 11.404 40.376L5.288 37.604ZM72.388 6.496H87.524V16.088H82.156V9.268H55.888V16.088H50.52V6.496H69.396C66.976 5 64.336 3.504 62.312 2.448L63.016 0.291998C66.492 0.863998 70.716 1.832 74.192 3.372L72.388 6.496ZM62.752 23.436V27.528H83.74V41.564H78.24V38.792H62.752V41.696H57.208V12.788H80.968V23.436H62.752ZM62.752 15.472V20.752H75.776V15.472H62.752ZM78.24 30.212H62.752V36.108H78.24V30.212ZM103.768 15.39L102.59 14.174C104.452 11.894 105.744 9.12 106.732 5.548L110.836 6.46C110.532 7.22 110.19 7.98 109.772 8.702H120.488L121.59 7.942L125.314 10.336C123.68 12.274 121.818 13.794 119.842 14.972L118.664 13.908C119.424 12.768 119.842 12.046 120.298 10.906H116.194C116.004 11.552 115.738 12.122 115.472 12.73C118.512 15.428 122.198 16.264 126.302 16.606L124.782 20.672C121.286 20.14 116.878 17.974 114.484 14.44C112.09 17.784 107.986 19.798 102.704 20.14L102.324 18.544C107.796 17.062 110.304 14.554 111.444 10.906H108.328C106.96 12.73 105.326 14.326 103.768 15.39ZM103.198 9.082L100.804 12.73C98.79 11.096 96.358 9.386 94.534 8.208L95.256 6.498C97.384 6.916 100.766 7.942 103.198 9.082ZM102.628 14.554C100.69 17.29 98.448 19.684 95.598 21.888L93.204 18.088C96.092 16.72 98.942 15.162 101.374 13.3L102.628 14.554ZM122.122 34.58H106.048L109.088 37.088C105.402 39.064 99.778 40.698 94.192 41.382L93.622 39.596C98.068 38.228 101.298 36.594 104.376 34.58H97.84V20.406H122.122V34.58ZM102.704 22.61V24.472H117.296V22.61H102.704ZM102.704 26.486V28.348H117.296V26.486H102.704ZM102.704 30.362V32.414H117.296V30.362H102.704ZM112.66 34.618C116.536 34.998 121.856 35.796 126.34 37.164L124.364 41.648C120.754 39.9 115.7 37.962 111.976 36.594L112.66 34.618ZM145.454 12.426V14.82H131.204V12.426H137.436C136.258 10.336 135.042 8.284 134.054 6.878L135.308 5.586C137.436 6.878 139.792 8.968 141.464 10.944L139.488 12.426H145.454ZM164.872 29.488C166.848 39.406 164.796 41.99 161.528 40.888C156.892 39.33 156.626 30.476 156.626 17.48V10.488H152.94V21.432H155.98V23.75H152.94V41.078H148.266V23.75H145.036V21.432H148.266V10.488H144.808V8.17H161.11V18.126C161.072 29.754 161.68 35.302 162.364 35.568C162.934 35.834 163.01 34.922 162.934 29.488H164.872ZM144.238 17.822V20.102H132.42V17.822H144.238ZM132.42 25.194V22.876H144.238V25.194H132.42ZM132.382 41.078V28.234H144.39V40.66H140.21V38.532H136.486V41.078H132.382ZM136.486 30.476V36.214H140.21V30.476H136.486ZM171.142 19.912V7.296H183.036V36.822C183.036 41.686 178.78 42.37 173.954 39.368L174.448 37.43C178.172 38.19 178.742 37.772 178.742 35.834V27.322H175.474C175.056 33.288 173.878 37.658 170.42 41.458L168.748 40.204C171.028 35.644 171.142 30.78 171.142 19.912ZM198.274 33.174C199.832 34.504 201.618 35.606 203.708 36.67L200.896 41.192C198.92 39.938 197.21 38.418 195.766 36.632C194.208 38.418 192.346 39.9 190.256 41.002L189.458 39.748V41.116H184.974V7.41H201.048C201.086 11.4 200.972 13.186 200.744 15.124C200.25 19.646 195.804 20.368 191.13 17.062L191.662 15.238C195.5 16.15 196.032 15.846 196.184 14.364C196.298 13.034 196.336 12.008 196.336 9.69H189.458V21.09H196.982L197.932 20.368L202.036 21.66C201.542 25.954 200.25 29.868 198.274 33.174ZM178.742 9.576H175.664V16.036H178.742V9.576ZM175.588 25.118H178.742V18.24H175.664V18.316C175.664 20.786 175.664 23.028 175.588 25.118ZM189.458 39.026C191.282 37.506 192.726 35.758 193.866 33.858C192.156 30.894 190.978 27.398 190.37 23.332H189.458V39.026ZM197.324 23.332H192.346C193.106 26.22 194.17 28.5 195.614 30.362C196.526 28.082 197.058 25.726 197.324 23.332ZM231.676 23.446C231.638 24.586 231.524 25.65 231.41 26.638H239.694C239.504 31.274 239.124 35.074 238.63 37.43C237.946 40.964 233.956 43.168 228.56 38.722L229.244 37.012C233.196 38.038 234.032 37.924 234.412 35.796C234.716 34.086 234.982 31.578 235.096 28.88H230.992C229.396 36.138 225.026 39.976 219.174 41.458L218.452 39.786C223.354 37.126 225.672 34.124 226.66 28.88H220.846V26.638H226.964C227.078 25.726 227.154 24.738 227.192 23.712C225.482 24.51 223.658 25.08 221.758 25.536L221.34 24.13C220.694 24.814 220.048 25.46 219.44 25.954L218.148 25.042V36.936C218.148 40.622 214.538 42.826 208.686 39.406L209.18 37.62C213.018 38.304 213.93 38 213.93 36.176V28.12C212.562 30.78 210.662 33.402 207.888 35.758L206.672 34.314C209.826 30.438 211.84 26.22 213.284 20.482H207.28V18.278H215.032C213.588 16.112 211.954 14.022 210.51 12.388L211.612 11.096C212.942 11.818 214.234 12.654 215.488 13.642C216.552 12.388 217.426 11.134 218.148 9.728H208.078V7.524H218.072L219.402 6.726L223.62 9.386C221.948 11.476 219.478 13.566 217.198 15.048C217.806 15.618 218.376 16.188 218.946 16.834L217.16 18.278H219.63L220.77 17.518L224.57 19.646C223.886 21.014 222.86 22.382 221.834 23.598C224.988 22.306 227.458 20.748 229.282 18.848C227.99 17.442 226.888 15.884 226.166 14.364C225.254 15.542 224.228 16.606 223.164 17.48L221.834 16.34C224.304 12.578 225.33 9.424 226.128 5.434L230.384 6.536C230.08 7.562 229.624 8.626 229.092 9.728H240.53V12.008H237.756C236.996 14.516 235.78 16.72 234.184 18.544C236.198 19.57 238.592 20.368 241.404 20.976L239.58 25.346C236.692 24.586 233.918 23.028 231.562 21.052C230.384 21.964 229.092 22.762 227.724 23.446H231.676ZM227.458 12.54C228.522 14.136 229.738 15.466 231.144 16.606C232.056 15.2 232.74 13.68 233.196 12.008H227.8L227.458 12.54ZM218.148 24.51C218.756 23.256 219.364 21.774 219.668 20.482H218.148V24.51ZM259.34 41.458V27.512H245.28V24.814H259.34V10.412H247.142V7.866H276.82V10.412H264.508V24.814H278.682V27.512H264.508V41.458H259.34ZM267.738 23.788L266.028 22.686C267.624 19.266 268.802 15.998 269.942 11.21L275.3 13.224C272.868 17.708 270.702 20.862 267.738 23.788ZM252.956 23.712C251.93 19.646 250.6 16.074 249.08 12.502L250.904 11.514C253.678 14.364 256.376 18.278 257.934 21.546L252.956 23.712ZM311.97 24.206C311.172 22.686 310.222 20.976 309.158 19.266C302.394 20.862 292.134 22.382 285.37 22.914L284.116 17.67C285.94 17.746 287.84 17.746 289.778 17.784C292.324 14.136 294.566 9.462 296.086 5.358L302.09 7.486C299.734 11.02 296.504 14.858 293.274 17.746C298.442 17.67 303.572 17.442 307.828 17.138C306.688 15.314 305.472 13.528 304.294 11.894L305.89 10.45C309.766 13.3 314.212 17.898 316.416 20.938L311.97 24.206ZM287.878 41.154V25.118H312.046V41.154H307.106V38.57H292.818V41.154H287.878ZM292.818 27.474V36.176H307.106V27.474H292.818Z" fill="white"/>
</g>
<defs>
<filter id="filter0_d_79_182" x="0.97998" y="0.291992" width="319.436" height="50.876" filterUnits="userSpaceOnUse" color-interpolation-filters="sRGB">
<feFlood flood-opacity="0" result="BackgroundImageFix"/>
<feColorMatrix in="SourceAlpha" type="matrix" values="0 0 0 0 0 0 0 0 0 0 0 0 0 0 0 0 0 0 127 0" result="hardAlpha"/>
<feOffset dy="4"/>
<feGaussianBlur stdDeviation="2"/>
<feComposite in2="hardAlpha" operator="out"/>
<feColorMatrix type="matrix" values="0 0 0 0 0 0 0 0 0 0 0 0 0 0 0 0 0 0 0.15 0"/>
<feBlend mode="normal" in2="BackgroundImageFix" result="effect1_dropShadow_79_182"/>
<feBlend mode="normal" in="SourceGraphic" in2="effect1_dropShadow_79_182" result="shape"/>
</filter>
</defs>
</svg>
